<?xml version="1.0" standalone="no"?>
<!DOCTYPE svg PUBLIC "-//W3C//DTD SVG 20010904//EN"
 "http://www.w3.org/TR/2001/REC-SVG-20010904/DTD/svg10.dtd">
<svg version="1.0" xmlns="http://www.w3.org/2000/svg"
 width="119.000000pt" height="33.000000pt" viewBox="0 0 119.000000 33.000000"
 preserveAspectRatio="xMidYMid meet">
<metadata>
Created by potrace 1.15, written by Peter Selinger 2001-2017
</metadata>
<g transform="translate(0.000000,33.000000) scale(0.100000,-0.100000)"
fill="#000000" stroke="none">
<path d="M526 221 c-3 -4 -3 -18 -1 -31 3 -16 -1 -24 -15 -27 -14 -4 -20 -16
-22 -47 l-3 -41 -192 -3 c-117 -1 -193 -6 -193 -12 0 -6 182 -10 504 -10 l503
0 -1 52 c-1 39 2 52 12 50 8 -1 11 2 7 8 -12 19 -34 -9 -37 -46 -4 -50 -22
-42 -29 13 l-5 48 -5 -50 -4 -50 -45 0 c-42 0 -45 2 -48 28 -2 15 -7 27 -11
27 -5 0 -6 -11 -4 -24 6 -27 -13 -44 -30 -27 -9 9 -8 16 1 31 7 11 8 20 3 20
-5 0 -12 8 -14 18 -3 9 -5 -2 -6 -25 -1 -48 -10 -57 -44 -44 -18 7 -27 7 -30
-2 -3 -8 -11 -6 -26 7 -17 15 -19 22 -9 35 10 13 10 14 -2 4 -23 -21 -31 -15
-28 20 2 23 8 31 19 29 12 -2 15 4 11 23 -2 14 -9 28 -15 32 -5 3 -7 1 -4 -4
4 -6 -4 -14 -18 -17 -23 -6 -37 -36 -17 -36 12 0 15 -87 3 -94 -6 -4 -22 -4
-36 0 -22 5 -26 11 -22 30 2 13 1 24 -3 24 -12 0 -20 -28 -14 -45 7 -18 -4
-19 -41 -5 -21 8 -25 14 -20 31 5 15 4 19 -5 14 -6 -4 -10 -19 -7 -32 4 -23 2
-25 -25 -19 -17 3 -37 6 -44 6 -8 0 -14 7 -14 15 0 9 9 15 25 15 16 0 25 -6
25 -16 0 -8 5 -12 10 -9 8 5 8 11 0 20 -8 9 -6 17 6 29 21 21 11 46 -18 46
l-23 0 24 13 c26 13 40 37 22 37 -6 0 -11 -7 -11 -16 0 -9 -6 -14 -12 -11 -7
2 -12 10 -10 16 2 13 -5 15 -12 2z"/>
</g>
</svg>
